
<svg xmlns="http://www.w3.org/2000/svg" viewBox="0 0 154 40" fill="none">
  <path d="M40 20C40 31.0457 31.0457 40 20 40C8.9543 40 0 31.0457 0 20C0 8.9543 8.9543 0 20 0C31.0457 0 40 8.9543 40 20Z" fill="#E74C3C"/>
  <path d="M12 12V28H28V12H12Z" stroke="white" stroke-width="2"/>
  <path d="M16 16L24 24M24 16L16 24" stroke="white" stroke-width="2"/>
  <path d="M20 10V30" stroke="white" stroke-width="2"/>
  <path d="M10 20H30" stroke="white" stroke-width="2"/>
  <path d="M54 11H59.5C61.0333 11 62.25 11.3 63.15 11.9C64.05 12.5 64.5 13.3667 64.5 14.5C64.5 15.6333 64.05 16.5 63.15 17.1C62.25 17.7 61.0333 18 59.5 18H56.5V23H54V11ZM59.2 16C60 16 60.6333 15.8333 61.1 15.5C61.5667 15.1667 61.8 14.7 61.8 14.1C61.8 13.5 61.5667 13.0333 61.1 12.7C60.6333 12.3667 60 12.2 59.2 12.2H56.5V16H59.2Z" fill="black"/>
  <path d="M69.9016 20.6L69.0016 23H66.2016L71.0016 11H73.9016L78.7016 23H75.9016L75.0016 20.6H69.9016ZM72.4516 13.6L70.6016 18.4H74.3016L72.4516 13.6Z" fill="black"/>
  <path d="M90.9656 11V23H88.8656V17.9H82.3656V23H80.2656V11H82.3656V16.3H88.8656V11H90.9656Z" fill="black"/>
  <path d="M97.3359 11V21.4H103.836V23H95.2359V11H97.3359Z" fill="black"/>
  <path d="M115.495 20.6L114.595 23H111.795L116.595 11H119.495L124.295 23H121.495L120.595 20.6H115.495ZM118.045 13.6L116.195 18.4H119.895L118.045 13.6Z" fill="black"/>
  <path d="M126.031 11H128.131V23H126.031V11Z" fill="black"/>
</svg>
